<svg xmlns="http://www.w3.org/2000/svg" viewBox="0 0 512 512">
  <defs>
    <linearGradient id="bg" x1="0%" y1="0%" x2="100%" y2="100%">
      <stop offset="0%" style="stop-color:#3B82F6"/>
      <stop offset="100%" style="stop-color:#1D4ED8"/>
    </linearGradient>
  </defs>
  <!-- Background -->
  <rect width="512" height="512" rx="96" fill="url(#bg)"/>
  <!-- Washing machine outline -->
  <rect x="116" y="96" width="280" height="320" rx="24" fill="white" opacity="0.95"/>
  <!-- Control panel -->
  <rect x="136" y="116" width="240" height="60" rx="8" fill="#E5E7EB"/>
  <circle cx="176" cy="146" r="16" fill="#3B82F6"/>
  <circle cx="220" cy="146" r="16" fill="#10B981"/>
  <rect x="260" y="130" width="96" height="32" rx="4" fill="#1F2937"/>
  <!-- Door circle -->
  <circle cx="256" cy="296" r="100" fill="#F3F4F6" stroke="#D1D5DB" stroke-width="8"/>
  <circle cx="256" cy="296" r="76" fill="#DBEAFE"/>
  <!-- RFID waves -->
  <path d="M236 276 Q256 256 276 276" stroke="#3B82F6" stroke-width="6" fill="none" stroke-linecap="round"/>
  <path d="M226 286 Q256 246 286 286" stroke="#3B82F6" stroke-width="6" fill="none" stroke-linecap="round"/>
  <path d="M216 296 Q256 236 296 296" stroke="#3B82F6" stroke-width="6" fill="none" stroke-linecap="round"/>
  <!-- RFID tag -->
  <rect x="240" y="304" width="32" height="20" rx="4" fill="#3B82F6"/>
  <rect x="246" y="310" width="8" height="8" rx="2" fill="white"/>
</svg>
